<svg xmlns="http://www.w3.org/2000/svg" id="Layer_1" data-name="Layer 1" viewBox="0 0 751.59 245.86"><defs><style> .cls-1 { fill: #002d74; } .cls-2 { fill: #b12028; } .cls-3 { fill: #691c32; } .cls-4 { fill: #fff; } .cls-5 { fill: #758592; } </style></defs><title>logo</title><path class="cls-1" d="M325.5,92.62c3.72-2.89,6.48-7,6.48-13.89a18.32,18.32,0,0,0-5.45-13.42c-4.53-4.53-11.44-6.92-20-6.92H275.9a3,3,0,0,0-3,3v68.36a3,3,0,0,0,3,3h31.64c17.42,0,28.25-8.32,28.25-21.91A20.1,20.1,0,0,0,325.5,92.62Zm-7.64,17.89c0,5.3-5.56,6.41-10.23,6.41H290.22V104.09h16.53C314.12,104.09,317.86,106.19,317.86,110.51ZM314.05,81c0,4-3.34,6-9.93,6h-13.9V74.34H305c5.66,0,9.05,2.4,9.05,6.42Z" transform="translate(-45.27 -47.13)"></path><path class="cls-1" d="M414.32,128.52,384.24,59.68a3,3,0,0,0-2.71-1.78H370.4a3,3,0,0,0-2.72,1.78l-30.07,68.84a3,3,0,0,0,2.71,4.15h12.3a3,3,0,0,0,2.73-1.8l6.26-14.7H390l6.17,14.68a3,3,0,0,0,2.73,1.82h12.7a3,3,0,0,0,2.71-4.15ZM383.08,99.6H368.54l7.24-16.89Z" transform="translate(-45.27 -47.13)"></path><path class="cls-1" d="M483.45,58.39H471.63a3,3,0,0,0-3,3V100L437.36,59.54A3,3,0,0,0,435,58.39H423.88a3,3,0,0,0-3,3v68.36a3,3,0,0,0,3,3H435.7a3,3,0,0,0,3-3v-40l32.39,41.79a3,3,0,0,0,2.34,1.15h10.06a3,3,0,0,0,3-3V61.35A3,3,0,0,0,483.45,58.39Z" transform="translate(-45.27 -47.13)"></path><path class="cls-1" d="M564.19,88.56H535.82a3,3,0,0,0-3,3v10.55a3,3,0,0,0,3,3h13.79v8.18A25.58,25.58,0,0,1,536.06,117c-12.13,0-20.28-8.62-20.28-21.65,0-11.81,8.44-21.06,19.21-21.06,7.82,0,12.4,2.51,17.24,6.54a3,3,0,0,0,4.17-.37L564,71.36a3,3,0,0,0-.35-4.16c-8.37-7.09-16.53-10-28.18-10a37.85,37.85,0,0,0-38.22,38.31v.19c0,22.09,16.16,38.12,38.41,38.12a46.37,46.37,0,0,0,30.44-11.35,3,3,0,0,0,1-2.25V91.52A3,3,0,0,0,564.19,88.56Z" transform="translate(-45.27 -47.13)"></path><path class="cls-1" d="M645.77,127.91,617.83,91l26.45-27.57a3,3,0,0,0-2.12-5H627.21a3,3,0,0,0-2.15.93L598,88.27V61.35a3,3,0,0,0-3-3h-12a3,3,0,0,0-3,3v68.36a3,3,0,0,0,3,3h12a3,3,0,0,0,3-3V111.09l7.4-7.61,21,28a3,3,0,0,0,2.37,1.17h14.64a3,3,0,0,0,2.35-4.76Z" transform="translate(-45.27 -47.13)"></path><path class="cls-1" d="M683.66,57.22c-21.77,0-38.81,16.82-38.81,38.31v.19c0,21.73,16.6,38.12,38.61,38.12,21.75,0,38.8-16.83,38.8-38.51S705.66,57.22,683.66,57.22Zm20.08,38.31v.19c0,12-8.64,21.07-20.08,21.07s-20.29-9.14-20.29-21.46c0-12,8.64-21.06,20.09-21.06S703.74,83.41,703.74,95.53Z" transform="translate(-45.27 -47.13)"></path><path class="cls-1" d="M796.25,127.91,768.31,91l26.45-27.57a3,3,0,0,0-2.13-5H777.69a3,3,0,0,0-2.15.93l-27,28.95V61.35a3,3,0,0,0-3-3h-12a3,3,0,0,0-3,3v68.36a3,3,0,0,0,3,3h12a3,3,0,0,0,3-3V111.09l7.4-7.61,21,28a3,3,0,0,0,2.36,1.17H793.9a3,3,0,0,0,2.35-4.76Z" transform="translate(-45.27 -47.13)"></path><path class="cls-1" d="M332.72,143.79h-12a3,3,0,0,0-3,3v25.64H290.87V146.75a3,3,0,0,0-3-3h-12a3,3,0,0,0-3,3v68.36a3,3,0,0,0,3,3h12a3,3,0,0,0,3-3V189.45h26.88v25.66a3,3,0,0,0,3,3h12a3,3,0,0,0,3-3V146.75A3,3,0,0,0,332.72,143.79Z" transform="translate(-45.27 -47.13)"></path><path class="cls-1" d="M384.26,142.62c-21.76,0-38.8,16.83-38.8,38.31v.2c0,21.73,16.6,38.11,38.61,38.11,21.75,0,38.8-16.83,38.8-38.5S406.27,142.62,384.26,142.62Zm20.09,38.31v.2c0,12-8.64,21.06-20.09,21.06S364,193.05,364,180.74c0-12,8.63-21.06,20.09-21.06S404.35,168.81,404.35,180.93Z" transform="translate(-45.27 -47.13)"></path><path class="cls-1" d="M465.11,172.58c-14.18-3.3-14.18-5.31-14.18-8.05,0-3.08,3.36-5.15,8.37-5.15a29.68,29.68,0,0,1,17.6,6,3,3,0,0,0,4.18-.69l6-8.59a3,3,0,0,0-.6-4,41.44,41.44,0,0,0-27-9.22c-15.56,0-26.86,9.58-26.86,23,0,15.92,12.57,20.23,25.48,23.29,13.81,3.13,13.81,5.49,13.81,7.76,0,3.27-4.17,5.64-9.91,5.64-7.39,0-13.89-2.61-20.46-8.19a3,3,0,0,0-4.23.4l-6.95,8.59a3,3,0,0,0,.35,4.09,46.42,46.42,0,0,0,31,11.67c17.1,0,28.59-9.39,28.59-23.57C490.31,180.6,477.58,175.56,465.11,172.58Z" transform="translate(-45.27 -47.13)"></path><path class="cls-1" d="M532.54,143.79H504.22a3,3,0,0,0-3,3v68.36a3,3,0,0,0,3,3h12a3,3,0,0,0,3-3v-19h12c18.23,0,30.49-10.57,30.49-26.49C561.66,154.17,550,143.79,532.54,143.79Zm10.8,26.3c0,5.62-4.62,9.25-11.78,9.25H519.19V160.65h12.37C536.93,160.65,543.34,162.26,543.34,170.09Z" transform="translate(-45.27 -47.13)"></path><rect class="cls-1" x="527.2" y="96.66" width="17.93" height="74.28" rx="2.96"></rect><path class="cls-1" d="M661.53,143.79H605.35a3,3,0,0,0-3,3v11.13a3,3,0,0,0,3,3H623.6v54.26a3,3,0,0,0,3,3h12a3,3,0,0,0,3-3V160.85h20a3,3,0,0,0,3-3V146.75A3,3,0,0,0,661.53,143.79Z" transform="translate(-45.27 -47.13)"></path><path class="cls-1" d="M734.92,213.93l-30.08-68.85a3,3,0,0,0-2.71-1.78H691a3,3,0,0,0-2.71,1.78L658.2,213.93a3,3,0,0,0,2.72,4.14h12.3a3,3,0,0,0,2.73-1.8l6.26-14.7h28.4l6.17,14.69a3,3,0,0,0,2.73,1.81H732.2a3,3,0,0,0,2.72-4.14ZM703.68,185H689.13l7.24-16.89Z" transform="translate(-45.27 -47.13)"></path><path class="cls-1" d="M793.9,200.89H761.56V146.75a3,3,0,0,0-3-3h-12a3,3,0,0,0-3,3v68.36a3,3,0,0,0,3,3H793.9a3,3,0,0,0,3-3V203.86A3,3,0,0,0,793.9,200.89Z" transform="translate(-45.27 -47.13)"></path><path class="cls-1" d="M199.2,138.24H181.93v17.08a5.71,5.71,0,0,1-5.7,5.69H142.07a5.71,5.71,0,0,0-5.69,5.7v34.16a5.71,5.71,0,0,1-5.7,5.69H96.52a5.71,5.71,0,0,1-5.7-5.69V166.71a5.71,5.71,0,0,0-5.69-5.7H45.27v68.33H180.5v0a47.59,47.59,0,0,0,18.7-91.08Z" transform="translate(-45.27 -47.13)"></path><path class="cls-2" d="M180.5,47.15v0H45.27v68.33H85.13a5.71,5.71,0,0,0,5.69-5.69V75.6a5.71,5.71,0,0,1,5.7-5.69h34.16a5.71,5.71,0,0,1,5.7,5.69v34.17a5.71,5.71,0,0,0,5.69,5.69h34.16a5.71,5.71,0,0,1,5.7,5.69v17.09h17.26A47.59,47.59,0,0,0,180.5,47.15Z" transform="translate(-45.27 -47.13)"></path><path class="cls-3" d="M85.13,115.46a5.71,5.71,0,0,0,5.69-5.69V75.6a5.69,5.69,0,0,1,1.79-4.11v0l-47.21,44Z" transform="translate(-45.27 -47.13)"></path><path class="cls-4" d="M176.23,115.46H142.07a5.71,5.71,0,0,1-5.69-5.69V75.6a5.71,5.71,0,0,0-5.7-5.69H96.52a5.71,5.71,0,0,0-5.7,5.69v34.17a5.71,5.71,0,0,1-5.69,5.69H45.27V161H85.13a5.71,5.71,0,0,1,5.69,5.7v34.16a5.71,5.71,0,0,0,5.7,5.69h34.16a5.71,5.71,0,0,0,5.7-5.69V166.71a5.71,5.71,0,0,1,5.69-5.7h34.16a5.71,5.71,0,0,0,5.7-5.69V121.15A5.71,5.71,0,0,0,176.23,115.46Z" transform="translate(-45.27 -47.13)"></path><path class="cls-5" d="M286.23,292.88a22.85,22.85,0,0,1-15.78-5.95l4.84-5.79q5.47,4.51,11.1,4.52a7.14,7.14,0,0,0,3.93-.93,2.91,2.91,0,0,0,1.44-2.58V282a3,3,0,0,0-1.49-2.57,22.7,22.7,0,0,0-6-2.15,45.66,45.66,0,0,1-5.16-1.57,17.11,17.11,0,0,1-3.74-2.05,7.46,7.46,0,0,1-2.6-3.16,11.24,11.24,0,0,1-.83-4.59v-.11a10.12,10.12,0,0,1,3.64-8.13,14,14,0,0,1,9.38-3.08,21.42,21.42,0,0,1,13.81,4.73l-4.25,6.16q-5.26-3.66-9.67-3.67a6,6,0,0,0-3.53.91,2.77,2.77,0,0,0-1.25,2.34v.1a2.94,2.94,0,0,0,1.54,2.71,29.83,29.83,0,0,0,6.48,2.18q6.06,1.59,8.93,4.06a8.88,8.88,0,0,1,2.87,7.1v.1a10.33,10.33,0,0,1-3.75,8.48Q292.4,292.88,286.23,292.88Z" transform="translate(-45.27 -47.13)"></path><path class="cls-5" d="M307.38,292.35V255.16h8.18v37.19Z" transform="translate(-45.27 -47.13)"></path><path class="cls-5" d="M324.86,292.35V255.16h17q7.06,0,10.84,3.77a11.51,11.51,0,0,1,3.18,8.5v.11q0,8.55-8,11.53L357,292.35h-9.56l-8-11.9H333v11.9ZM333,273.22h8.29a6.85,6.85,0,0,0,4.59-1.43A4.78,4.78,0,0,0,347.6,268v-.11a4.76,4.76,0,0,0-1.7-4,7.44,7.44,0,0,0-4.73-1.35H333Z" transform="translate(-45.27 -47.13)"></path><path class="cls-5" d="M363.64,292.35V255.16h8.18v37.19Z" transform="translate(-45.27 -47.13)"></path><path class="cls-5" d="M381.12,292.35V255.16h17q7.06,0,10.84,3.77a11.48,11.48,0,0,1,3.19,8.5v.11q0,8.55-8,11.53l9.09,13.28H403.7l-8-11.9H389.3v11.9Zm8.18-19.13h8.29a6.88,6.88,0,0,0,4.6-1.43,4.8,4.8,0,0,0,1.67-3.82v-.11a4.76,4.76,0,0,0-1.7-4,7.42,7.42,0,0,0-4.73-1.35H389.3Z" transform="translate(-45.27 -47.13)"></path><path class="cls-5" d="M451.75,287.38a20.68,20.68,0,0,1-28.26.06,18.38,18.38,0,0,1-5.6-13.58v-.1a18.47,18.47,0,0,1,5.65-13.63,20.68,20.68,0,0,1,28.27-.05,18.38,18.38,0,0,1,5.6,13.57v.11A18.4,18.4,0,0,1,451.75,287.38ZM429.63,282a11.3,11.3,0,0,0,16.1.06,11.6,11.6,0,0,0,3.13-8.24v-.1a11.64,11.64,0,0,0-3.19-8.29,11.3,11.3,0,0,0-16.1-.06,11.6,11.6,0,0,0-3.13,8.24v.11A11.64,11.64,0,0,0,429.63,282Z" transform="translate(-45.27 -47.13)"></path><path class="cls-5" d="M471.54,292.88a15.12,15.12,0,0,1-12.16-5.58l5.15-5.73q3.41,3.72,6.8,3.72,5,0,5-6.17v-24h8.39v24.33q0,6.43-3.51,9.94T471.54,292.88Z" transform="translate(-45.27 -47.13)"></path></svg>